# xmcd CD database file
#
# Track frame offsets:
#	150
#	4695
#	23287
#	48169
#	72431
#	96473
#	122152
#	135120
#	173445
#
# Disc length: 2409 seconds
#
# Revision: 0
# Processed by: cddbd v1.5.1PL0 Copyright (c) Steve Scherf et al.
# Submitted via: CDex 1.51
#
DISCID=62096709
DTITLE=Savoy Brown - Looking In
DYEAR=1900
DGENRE=Blues
TTITLE0=Gypsy
TTITLE1=Poor Girl
TTITLE2=Money Cant Save Your Soul
TTITLE3=Sunday Night
TTITLE4=Looking In
TTITLE5=Take It Easy
TTITLE6=Sitting and Thinking
TTITLE7=Leavin Again
TTITLE8=Romanoff
EXTD=
EXTT0=
EXTT1=
EXTT2=
EXTT3=
EXTT4=
EXTT5=
EXTT6=
EXTT7=
EXTT8=
PLAYORDER=
